<svg width="2004" height="430" viewBox="0 0 2004 430" fill="none" xmlns="http://www.w3.org/2000/svg">
<g clip-path="url(#clip0_3_265)">
<path d="M1746.93 11.459C1740.96 13.4251 1737.13 19.9411 1729.47 21.2892C1701.97 26.1762 1703.26 23.3676 1675.03 33.3101C1612.04 55.4982 1549.09 55.5544 1483.45 52.4087C1424.62 49.6001 1379.26 72.9117 1334.68 107.121C1306.68 128.635 1249.71 158.743 1218.55 174.022C1204.12 181.1 1099.09 241.429 1091.99 249.181C1080.44 261.707 1074.75 238.115 1077.68 228.285C1083.09 210.197 1136.84 166.214 1150.76 153.688C1184.46 123.467 1219.62 94.8189 1253.6 67.2383C1264.36 58.4754 1272.25 54.4871 1276.87 48.7575C1282.67 34.6582 1277.15 14.4923 1267.8 4.32513C1256.53 -7.92046 1126.53 10.1109 1122.76 10.2232C1063.87 11.9646 1017.61 33.591 991.406 56.4532C987.574 65.4969 829.684 131.556 869.579 95.493C872.115 93.2461 889.019 67.1821 895.838 55.3859C893.922 41.5113 884.455 28.3669 875.101 18.3682C864.958 7.52696 852.618 3.14551 839.038 1.57268C813.286 12.2454 778.463 29.2095 767.7 36.849C762.459 40.5564 761.727 46.8477 758.684 49.2069C734.228 68.137 690.84 120.602 620.572 160.878C523.652 216.432 415.349 252.663 301.974 256.708C263.882 258.056 216.662 264.179 178.006 269.122C132.025 275.02 75.4509 311.532 77.5358 252.27C77.7612 246.372 86.8898 172.786 179.133 148.183C215.478 138.465 290.028 109.255 300.453 106.671C338.77 97.122 389.372 69.9345 503.141 69.092C510.748 69.092 518.411 67.4068 524.891 63.4185C532.611 58.6439 537.964 51.2853 538.584 37.9162C538.584 37.8039 538.584 37.7477 538.584 37.6354C539.317 21.4015 526.92 7.52696 510.804 5.05537C496.21 2.80847 479.192 1.57268 473.219 1.46033C381.483 -0.281011 290.028 35.1076 265.009 44.2076C251.655 49.0946 196.263 65.6093 184.768 65.5531C146.282 65.4969 113.712 61.6772 84.3541 78.9221C29.9772 110.828 43.7827 154.081 23.328 203.119C9.24071 236.935 -15.6092 351.078 13.6923 370.289C72.1263 408.654 113.487 351.639 135.294 343.213C149.832 337.596 209.9 333.159 225.734 332.204C283.266 328.721 342.095 322.149 399.796 318.778C438.17 316.532 511.48 325.912 543.712 314.116C556.785 309.341 567.041 261.932 579.55 252.326C614.825 225.139 603.498 239.688 642.21 215.533C648.014 211.938 695.178 176.325 697.263 178.853C699.067 181.044 696.869 197.502 695.46 202.389C688.304 228.116 663.792 257.607 655.34 283.221C651.564 294.68 645.366 320.969 642.886 333.159C637.477 359.616 625.644 410.677 654.494 426.068C679.964 439.605 696.813 414.159 700.982 410.62C749.612 369.671 755.641 289.962 812.497 245.024C877.524 193.626 997.548 139.476 1074.41 108.637C1098.36 99.0319 1123.66 91.2239 1148.73 85.3258L1111.6 114.535C1084.78 138.633 1042.01 188.515 1017.66 214.747C1005.1 228.341 979.798 246.035 972.585 263.336C961.653 289.456 958.836 322.991 986.503 339.113C1019.35 358.324 1004.42 351.527 1010.62 354.223C1018.57 357.706 1029.84 357.931 1038.29 356.021C1042.01 355.178 1067.7 338.607 1072.1 335.181C1085.45 324.677 1149.47 303.219 1162.48 292.827C1202.71 260.584 1267.69 223.791 1310.68 199.918C1335.81 185.931 1371.03 155.71 1396.39 145.037C1397.29 144.644 1398.25 144.363 1399.26 144.082C1406.7 139.307 1414.64 135.207 1422.98 131.837C1423.15 131.5 1423.38 131.275 1423.6 131.05C1424.22 130.545 1425.35 130.376 1426.76 130.32C1430.08 129.028 1433.52 127.848 1436.96 126.781C1451.1 120.658 1466.37 116.951 1481.76 115.659C1481.59 115.378 1481.47 115.097 1481.42 114.872C1484.91 114.648 1488.41 114.255 1491.9 113.918C1496.29 113.075 1500.75 112.569 1505.31 112.401C1535.85 108.469 1566.34 102.009 1596.76 99.2565C1638.24 95.493 1730.09 101.897 1762.09 88.7523C1766.94 86.7863 1766.66 81.6184 1769.59 79.8209C1789.99 67.4068 1795.68 71.058 1800.24 40.781C1779.22 24.6596 1779.05 0.898611 1747.05 11.4029L1746.93 11.459Z" fill="white"/>
<path d="M1933.06 20.0536C1952.1 16.8517 1989.63 14.3801 1999.72 33.5911C2013.8 60.5539 1990.98 73.3612 1966.3 76.5069C1953 78.192 1894.68 73.4174 1895.64 56.9027C1896.77 37.1862 1914.69 23.0869 1933.11 19.9974L1933.06 20.0536Z" fill="white"/>
</g>
<defs>
<clipPath id="clip0_3_265">
<rect width="2004" height="430" fill="white"/>
</clipPath>
</defs>
</svg>
